<mxfile host="app.diagrams.net" modified="2024-03-13T08:02:52.167Z" agent="Mozilla/5.0 (Macintosh; Intel Mac OS X 10_15_7) AppleWebKit/537.36 (KHTML, like Gecko) Chrome/121.0.0.0 Safari/537.36" version="24.0.5" etag="IQ-U3Vgrc61LMrFSwZuc" type="github">
  <diagram name="第 1 页" id="R0ieCyn7ZeN5MrNY7rRE">
    <mxGraphModel>
      <root>
        <mxCell id="0" />
        <mxCell id="1" parent="0" />
      </root>
    </mxGraphModel>
  </diagram>
</mxfile>
